<?xml version="1.0" encoding="utf-8"?>
<!DOCTYPE svg PUBLIC "-//W3C//DTD SVG 1.1//EN" "http://www.w3.org/Graphics/SVG/1.1/DTD/svg11.dtd">
<svg style="width:308px;height:308px;" version="1.1" id="图形" xmlns="http://www.w3.org/2000/svg" xmlns:xlink="http://www.w3.org/1999/xlink" x="0px" y="0px" width="1024px" height="1024px" viewBox="0 0 1024 1024" enable-background="new 0 0 1024 1024" xml:space="preserve">
  <path class="svgpath" data-index="path_0" fill="#56abe4" d="M190.016 388.992q31.008 0 45.504 19.008t14.496 42.016l0 436.992-188 0 0-432.992q0-31.008 19.488-48t42.496-16.992l66.016 0zM502.016 143.008q27.008 0 43.008 16.512t16 39.488l0 688-187.008 0 0-686.016q0-15.008 6.016-26.016t15.008-18.016 20-10.496 20-3.488l67.008 0zM812.992 576q8.992 0 19.488 4.992t20 14.016 16 20.512 6.496 24.512l0 247.008-187.008 0 0-244.992q0-11.008 4.512-23.008t12.512-21.504 19.008-15.488 24-6.016l64.992 0z" />

</svg>
