<?xml version="1.0" encoding="utf-8"?>
<!DOCTYPE svg PUBLIC "-//W3C//DTD SVG 1.1//EN" "http://www.w3.org/Graphics/SVG/1.1/DTD/svg11.dtd">
<svg style="width:308px;height:308px;" version="1.1" id="图形" xmlns="http://www.w3.org/2000/svg" xmlns:xlink="http://www.w3.org/1999/xlink" x="0px" y="0px" width="1024px" height="1024px" viewBox="0 0 1024 1024" enable-background="new 0 0 1024 1024" xml:space="preserve">
  <path class="svgpath" data-index="path_0" fill="#56abe4" d="M694.539918 340.947206c-5.990434-5.991458-13.957897-9.29162-22.430872-9.29162s-16.439414 3.300162-22.430872 9.29162l-83.499739 83.496669-83.47518-83.47518c-5.992481-5.990434-13.95892-9.290597-22.431895-9.290597-8.472975 0-16.438391 3.299139-22.429849 9.290597-12.367679 12.368702-12.367679 32.494065 0 44.861744l51.740408 51.742455L439.090968 437.572894c-3.390213 0-6.139837 2.749624-6.139837 6.139837l0 51.16531c0 3.390213 2.749624 6.139837 6.139837 6.139837l95.377254 0 0 42.47437L439.090968 543.492248c-3.390213 0-6.139837 2.749624-6.139837 6.139837l0 51.16531c0 3.390213 2.749624 6.139837 6.139837 6.139837l95.377254 0 0 95.378278c0 17.492396 14.230096 31.722492 31.722492 31.722492s31.722492-14.230096 31.722492-31.722492l0-95.378278 95.378278 0c3.390213 0 6.139837-2.749624 6.139837-6.139837l0-51.16531c0-3.390213-2.749624-6.139837-6.139837-6.139837l-95.378278 0 0-42.47437 95.378278 0c3.390213 0 6.139837-2.749624 6.139837-6.139837l0-51.16531c0-3.390213-2.749624-6.139837-6.139837-6.139837l-50.516534 0 51.763944-51.761897C706.907597 373.441271 706.907597 353.315908 694.539918 340.947206z" />
<path class="svgpath" data-index="path_1" fill="#56abe4" d="M954.150654 334.092078c-21.201881-50.126654-51.547003-95.139847-90.194208-133.787052-38.649252-38.648229-83.661422-68.993351-133.787052-90.193185C678.258093 88.154759 623.129518 77.021188 566.314535 77.021188c-56.808844 0-111.933325 11.133571-163.843602 33.090653-50.123584 21.200858-95.133707 51.54598-133.779889 90.193185-38.646182 38.648229-68.990281 83.659375-90.192162 133.786029-8.698103 20.564361-15.752776 41.840944-21.055548 63.469544l-20.973684-47.208185c-5.086855-11.449773-16.47216-18.8493-29.004591-18.8493-4.447289 0-8.775874 0.920976-12.866029 2.739391-7.743358 3.440355-13.68365 9.689686-16.72594 17.597797-3.042289 7.909134-2.823302 16.528442 0.617054 24.2718l65.031109 146.374742c0.329505 0.76441 0.708128 1.548262 1.125637 2.330068 0.045025 0.084934 0.091074 0.170892 0.138146 0.25685 0.376577 0.691755 0.74292 1.314948 1.12052 1.905396 0.028653 0.045025 0.065492 0.101307 0.105401 0.158612 0.308015 0.474814 0.651846 0.971118 1.017166 1.469468 0.144286 0.199545 0.317225 0.429789 0.494257 0.659009 0.242524 0.313132 0.48607 0.61603 0.734734 0.912789 0.347924 0.420579 0.728594 0.853437 1.118474 1.27197l0.106424 0.115634c0.189312 0.205685 0.38067 0.412392 0.575098 0.60989 0.204661 0.206708 0.419556 0.412392 0.63445 0.618077l0.082888 0.077771c0.26299 0.25071 0.533143 0.503467 0.808412 0.748037 0.232291 0.205685 0.449231 0.394996 0.669242 0.578168 0.367367 0.310062 0.774643 0.636496 1.191128 0.952698 0.124843 0.099261 0.229221 0.179079 0.330528 0.25378 0.554632 0.411369 1.131777 0.810459 1.765203 1.215688l0 0c0.039909 0.025583 0.081864 0.052189 0.12075 0.075725 0.559748 0.356111 1.151219 0.703011 1.755993 1.032516l0.199545 0.107447c1.290389 0.695848 2.629897 1.301645 3.980661 1.804089 0.030699 0.01228 0.062422 0.022513 0.093121 0.033769 0.581238 0.212848 1.183965 0.412392 1.842974 0.610914l0.198521 0.058328 0.171915 0.051165c0.602727 0.170892 1.164522 0.315178 1.705851 0.437975l0.021489 0.005117 0.261966 0.063445c0.039909 0.00921 0.078795 0.01842 0.118704 0.025583 0.603751 0.127913 1.240247 0.242524 1.892093 0.340761 0.213871 0.032746 0.438998 0.061398 0.664126 0.089028l0.118704 0.01535c0.385786 0.047072 0.765433 0.089028 1.14508 0.12382l0.132006 0.01228c0.26913 0.022513 0.538259 0.045025 0.808412 0.061398 0.381693 0.022513 0.771573 0.034792 1.162476 0.042979l0.089028 0.005117c0.210801 0.010233 0.421602 0.01842 0.633427 0.01842 0.836041 0 1.705851-0.038886 2.65548-0.119727l0.056282-0.004093c0.039909-0.00307 0.078795-0.00614 0.11768-0.00921 0.862647-0.078795 1.729387-0.193405 2.573615-0.341784 0.14224-0.024559 0.264013-0.047072 0.38374-0.069585 0.86367-0.160659 1.648546-0.336668 2.396583-0.537236 0.119727-0.031722 0.243547-0.068562 0.36839-0.106424 0.020466-0.005117 0.036839-0.011256 0.057305-0.016373 0.621147-0.178055 1.261737-0.381693 1.90335-0.606821l0.116657-0.040932c0.191358-0.064468 0.382717-0.132006 0.572028-0.203638 0.566912-0.213871 1.125637-0.443092 1.656733-0.677429 0.023536-0.011256 0.048095-0.021489 0.071631-0.031722 0.093121-0.042979 0.184195-0.086981 0.274246-0.130983 0.267083-0.12382 0.496304-0.233314 0.725524-0.344854 0.750083-0.36839 1.412163-0.721431 2.038426-1.086751 0.093121-0.054235 0.194428-0.11461 0.295735-0.177032l0.074701-0.046049c1.726318-1.039679 3.327792-2.218528 4.78805-3.52222l120.495328-105.567337c13.156648-11.527544 14.481829-31.609928 2.956332-44.766576-6.024204-6.874571-14.724353-10.81737-23.870664-10.81737-7.686053 0-15.106046 2.791579-20.892843 7.861038l-57.207933 50.120514C247.265058 263.955694 395.248438 140.465149 566.318628 140.465149c197.116403 0 357.481787 160.365384 357.481787 357.481787 0 197.105147-160.365384 357.462345-357.481787 357.462345-85.289502 0-167.881568-30.532387-232.561683-85.97307-5.746888-4.924149-13.074783-7.636934-20.633946-7.636934-9.280364 0-18.063401 4.037966-24.096814 11.079336-11.382235 13.280468-9.839089 33.345456 3.440355 44.729737 76.171843 65.288982 173.427888 101.243869 273.852088 101.243869 56.812937 0 111.941512-11.132548 163.853835-33.088606 50.126654-21.200858 95.139847-51.54598 133.786029-90.192162 38.647205-38.644135 68.992327-83.654258 90.195232-133.780913 21.957081-51.909254 33.090653-107.035782 33.090653-163.844625C987.241306 441.135022 976.106712 386.006448 954.150654 334.092078z" />

</svg>
